HIERARCHY
ROOT Hips
{
	OFFSET	0.00	0.00	0.00
	CHANNELS 6 Xposition Yposition Zposition Zrotation Xrotation Yrotation
	JOINT LeftUpLeg
	{
		OFFSET	 0.126116	-0.014019	-0.065224
		CHANNELS 3 Zrotation Xrotation Yrotation
		JOINT LeftLeg
		{
			OFFSET	 0.000000	 0.000000	 0.569914
			CHANNELS 3 Zrotation Xrotation Yrotation
			JOINT LeftFoot
			{
				OFFSET	 0.000000	 0.000000	 0.544423
				CHANNELS 3 Zrotation Xrotation Yrotation
				JOINT LeftToeBase
				{
					OFFSET	 0.000000	 0.000000	 0.207117
					CHANNELS 3 Zrotation Xrotation Yrotation
					End Site
					{
						OFFSET	 0.000000	 0.000000	 0.207117
					}
				}
			}
		}
	}
	JOINT RightUpLeg
	{
		OFFSET	-0.124023	-0.008373	-0.065224
		CHANNELS 3 Zrotation Xrotation Yrotation
		JOINT RightLeg
		{
			OFFSET	 0.000000	 0.000000	 0.570047
			CHANNELS 3 Zrotation Xrotation Yrotation
			JOINT RightFoot
			{
				OFFSET	 0.000000	 0.000000	 0.544354
				CHANNELS 3 Zrotation Xrotation Yrotation
				JOINT RightToeBase
				{
					OFFSET	 0.000000	 0.000000	 0.207540
					CHANNELS 3 Zrotation Xrotation Yrotation
					End Site
					{
						OFFSET	 0.000000	 0.000000	 0.207540
					}
				}
			}
		}
	}
	JOINT Spine
	{
		OFFSET	 0.000184	-0.007763	 0.117403
		CHANNELS 3 Zrotation Xrotation Yrotation
		JOINT Spine1
		{
			OFFSET	 0.000000	 0.000000	 0.137269
			CHANNELS 3 Zrotation Xrotation Yrotation
			JOINT Spine2
			{
				OFFSET	 0.000000	 0.000000	 0.156879
				CHANNELS 3 Zrotation Xrotation Yrotation
				JOINT LeftShoulder
				{
					OFFSET	 0.080501	-0.002496	 0.160144
					CHANNELS 3 Zrotation Xrotation Yrotation
					JOINT LeftArm
					{
						OFFSET	 0.000000	 0.000000	 0.164363
						CHANNELS 3 Zrotation Xrotation Yrotation
						JOINT LeftForeArm
						{
							OFFSET	 0.000000	 0.000000	 0.364576
							CHANNELS 3 Zrotation Xrotation Yrotation
							JOINT LeftHand
							{
								OFFSET	 0.000000	 0.000000	 0.360812
								CHANNELS 3 Zrotation Xrotation Yrotation
								JOINT LeftHandIndex1
								{
									OFFSET	 0.000000	 0.000000	 0.086006
									CHANNELS 3 Zrotation Xrotation Yrotation
									JOINT LeftHandIndex2
									{
										OFFSET	 0.000000	 0.000000	 0.047236
										CHANNELS 3 Zrotation Xrotation Yrotation
										JOINT LeftHandIndex3
										{
											OFFSET	-0.004284	-0.000551	 0.038166
											CHANNELS 3 Zrotation Xrotation Yrotation
											End Site
											{
												OFFSET	-0.004284	-0.000551	 0.038166
											}
										}
									}
								}
							}
						}
					}
				}
				JOINT Neck
				{
					OFFSET	 0.000000	 0.000000	 0.176489
					CHANNELS 3 Zrotation Xrotation Yrotation
					JOINT Head
					{
						OFFSET	 0.000000	-0.001747	 0.077940
						CHANNELS 3 Zrotation Xrotation Yrotation
						End Site
						{
							OFFSET	 0.000000	-0.001747	 0.077940
						}
					}
				}
				JOINT RightShoulder
				{
					OFFSET	-0.080363	 0.000306	 0.159706
					CHANNELS 3 Zrotation Xrotation Yrotation
					JOINT RightArm
					{
						OFFSET	 0.000000	 0.000000	 0.164196
						CHANNELS 3 Zrotation Xrotation Yrotation
						JOINT RightForeArm
						{
							OFFSET	 0.000000	 0.000000	 0.365611
							CHANNELS 3 Zrotation Xrotation Yrotation
							JOINT RightHand
							{
								OFFSET	 0.000000	 0.000000	 0.360648
								CHANNELS 3 Zrotation Xrotation Yrotation
								JOINT RightHandIndex1
								{
									OFFSET	 0.000000	 0.000000	 0.069977
									CHANNELS 3 Zrotation Xrotation Yrotation
									JOINT RightHandIndex2
									{
										OFFSET	 0.000000	 0.000000	 0.052305
										CHANNELS 3 Zrotation Xrotation Yrotation
										JOINT RightHandIndex3
										{
											OFFSET	 0.009002	-0.000782	 0.042196
											CHANNELS 3 Zrotation Xrotation Yrotation
											End Site
											{
												OFFSET	 0.009002	-0.000782	 0.042196
											}
										}
									}
								}
							}
						}
					}
				}
			}
		}
	}
}
MOTION
Frames:    11
Frame Time: 0.03333334
-5.683358	-25.159630	 0.978909	-27.525820	 9.506114	 3.102551	 5.635714	-20.714280	 175.449900	-4.208956	-36.263040	-0.953448	-1.152400	 83.499290	-0.459007	-2.333738	 36.453670	-0.184345	-2.041227	-22.703160	-178.936700	-2.004128	-40.377620	-0.990006	-1.498947	 87.061950	 0.687834	 2.393730	 26.054750	-0.049744	-4.759354	 5.343032	-1.473082	-7.827835	 3.840273	-2.068211	-9.709962	 1.247699	-0.538011	-101.583300	 88.594030	-167.482500	 54.808340	 68.108220	-64.775730	-4.947028	-4.326040	-17.945890	 8.355830	 3.445612	-5.315115	-1.824080	-11.061780	 7.590116	-5.213516	-0.193813	 3.566525	-1.378229	 35.397820	-2.634230	 0.687863	 1.269980	 0.603701	-2.140469	 2.678448	 0.473510	 96.571040	 87.888260	 170.274300	-50.463260	 75.811430	 63.843160	-1.993246	-12.777570	 23.297790	-26.865420	 2.452627	 9.559325	-7.434522	-4.176738	-37.150830	 5.070815	-0.697434	-9.399699	-2.350882	 35.473990	 5.254307
-5.683858	-25.158550	 0.984016	-27.541710	 9.253727	 3.046089	 5.528836	-20.408710	 175.407100	-4.324462	-36.448470	-1.096249	-1.238798	 83.595650	-0.558411	-2.330611	 36.803880	-0.193045	-1.836322	-22.210110	-178.958200	-1.987937	-40.033790	-0.863455	-1.523483	 86.645970	 0.840133	 2.394375	 25.860160	-0.053825	-4.843892	 5.438928	-1.465731	-7.825583	 4.007599	-2.043903	-9.634942	 1.365809	-0.523908	-101.333800	 88.599600	-167.811600	 54.052680	 68.232090	-63.836980	-4.850088	-4.266130	-17.334950	 8.574430	 3.431426	-5.308254	-2.441607	-11.420430	 6.123202	-5.213516	-0.193813	 3.566525	-1.378229	 35.397820	-2.634230	 0.759196	 1.415035	 0.675542	-2.046973	 2.832247	 0.582700	 96.681420	 87.915600	 170.163500	-51.438200	 75.674090	 64.739820	-2.235831	-12.705280	 23.170400	-26.902800	 2.452151	 9.557678	-7.388650	-4.243790	-36.982370	 5.070815	-0.697434	-9.399699	-2.350882	 35.473990	 5.254307
-5.687814	-25.161360	 0.983440	-27.233860	 8.982933	 2.898899	 5.379593	-20.056480	 175.369700	-4.265103	-36.496520	-1.151299	-1.321622	 83.759990	-0.554417	-2.326935	 37.203520	-0.203052	-1.719288	-20.898580	-178.985600	-1.675901	-38.447990	-0.616062	-1.342920	 86.410510	 0.958845	 2.394473	 25.831100	-0.054434	-5.120132	 5.327232	-1.458696	-7.948223	 4.286117	-2.010938	-9.605823	 1.660037	-0.497657	-100.774400	 88.615350	-168.555700	 53.259490	 68.558550	-62.830330	-4.849478	-4.195092	-16.566190	 8.939843	 3.408520	-5.295978	-3.473457	-11.825930	 3.712394	-5.213516	-0.193813	 3.566525	-1.378229	 35.397820	-2.634230	 0.760210	 1.602169	 0.780445	-1.933563	 3.300943	 0.581960	 96.943750	 87.972810	 169.891300	-52.326470	 75.655930	 65.301360	-2.408526	-12.605540	 23.066630	-26.937890	 2.452286	 9.556223	-7.295028	-4.225996	-36.755750	 5.070815	-0.697434	-9.399699	-2.350882	 35.473990	 5.254307
-5.692322	-25.164000	 0.983283	-26.815160	 8.879167	 2.759240	 5.186405	-19.729710	 175.333700	-4.112140	-36.381900	-1.164841	-1.388496	 83.794610	-0.517852	-2.323790	 37.536150	-0.211451	-1.898004	-19.553960	-179.067200	-1.176140	-36.642110	-0.442233	-1.402661	 86.509410	 1.285085	 2.390653	 26.920060	-0.031467	-5.457239	 5.105726	-1.516086	-8.098748	 4.530366	-1.971191	-9.616436	 1.981610	-0.471213	-99.967990	 88.587910	-169.528400	 52.763650	 68.951590	-62.267000	-5.017755	-4.127832	-15.955200	 9.293037	 3.393764	-5.287004	-3.330503	-11.936400	 4.041389	-5.213516	-0.193813	 3.566525	-1.378229	 35.397820	-2.634230	 0.727662	 1.782050	 0.925290	-1.853040	 3.827735	 0.487481	 97.400280	 88.069740	 169.427400	-52.816890	 75.739270	 65.330580	-2.453226	-12.490930	 23.011060	-26.952640	 2.453147	 9.555795	-7.193401	-4.132515	-36.564950	 5.070815	-0.697434	-9.399699	-2.350882	 35.473990	 5.254307
-5.696837	-25.165520	 0.983467	-26.665640	 8.847198	 2.996511	 4.971756	-19.401700	 174.926800	-4.051715	-36.088180	-1.257778	-1.459243	 83.598680	-0.595800	-2.322199	 37.701630	-0.215647	-2.222802	-18.764710	-179.561600	-1.106730	-35.295590	-0.630946	-1.636968	 86.393000	 1.275829	 2.394468	 25.830940	-0.054431	-5.720860	 4.971155	-1.982445	-8.089683	 4.675739	-2.023342	-9.598094	 2.197930	-0.452180	-98.933080	 88.446440	-170.618500	 52.498370	 69.543300	-62.296310	-5.503992	-4.107182	-15.587070	 9.751374	 3.382514	-5.277277	-3.249237	-11.987640	 4.228109	-5.213516	-0.193813	 3.566525	-1.378229	 35.397820	-2.634230	 0.784335	 1.976031	 1.089850	-1.834419	 4.189507	 0.585422	 98.225630	 88.248440	 168.639900	-53.221120	 75.828050	 65.315830	-2.367686	-12.332600	 22.990190	-26.938700	 2.454659	 9.555516	-7.096878	-3.968696	-36.439300	 5.070815	-0.697434	-9.399699	-2.350882	 35.473990	 5.254307
-5.700130	-25.166600	 0.983828	-27.123670	 8.886395	 3.308982	 4.904793	-19.127810	 174.716700	-4.237189	-35.675250	-1.394673	-1.501803	 83.332260	-0.780245	-2.322817	 37.637180	-0.214013	-2.423516	-18.418710	-179.859300	-1.544465	-34.681340	-1.014354	-2.143232	 86.104480	 1.219561	 2.397640	 24.790580	-0.076110	-5.793037	 4.801724	-2.342083	-7.881469	 4.740657	-2.096693	-9.535774	 2.318034	-0.439227	-98.748170	 88.371540	-170.738900	 52.212600	 70.194730	-62.094180	-6.405807	-4.061384	-15.739650	 9.811757	 3.388108	-5.277576	-3.601220	-12.442040	 3.411509	-5.213516	-0.193813	 3.566525	-1.378229	 35.397820	-2.634230	 0.937068	 2.206692	 1.141778	-1.867543	 4.246501	 0.614955	 98.322580	 88.327550	 168.664900	-53.304680	 75.855230	 65.174770	-2.247422	-12.183960	 22.983300	-26.980850	 2.455872	 9.553726	-7.028045	-3.804620	-36.384850	 5.070815	-0.697434	-9.399699	-2.350882	 35.473990	 5.254307
-5.703357	-25.167280	 0.984453	-27.941740	 8.897247	 2.916814	 5.040562	-18.531180	 175.078600	-4.628238	-34.979130	-1.489576	-1.559756	 83.008660	-0.927901	-2.324484	 37.463880	-0.209617	-2.466526	-18.545040	-179.522600	-1.899929	-34.450600	-1.216546	-2.558432	 86.051470	 1.338483	 2.397327	 24.899550	-0.073850	-5.928155	 4.641323	-1.824843	-7.665888	 4.811258	-1.880125	-9.466597	 2.495605	-0.421341	-99.242180	 88.419460	-170.167000	 53.002220	 70.266970	-62.572390	-7.708779	-3.825073	-16.863310	 8.811483	 3.417675	-5.297658	-3.882445	-13.050990	 2.768487	-5.213516	-0.193813	 3.566525	-1.378229	 35.397820	-2.634230	 1.083506	 2.238180	 1.009639	-1.878139	 4.453906	 0.337802	 97.647690	 88.272290	 169.458900	-52.974120	 75.788760	 64.811840	-2.074085	-11.994450	 22.972910	-27.141380	 2.457942	 9.550298	-6.973005	-3.652810	-36.356740	 5.070815	-0.697434	-9.399699	-2.350882	 35.473990	 5.254307
-5.704988	-25.167310	 0.985024	-28.193430	 8.880896	 2.636665	 5.107543	-18.155260	 175.320900	-4.743099	-34.497560	-1.476348	-1.616011	 82.890190	-0.906057	-2.325786	 37.326470	-0.206147	-2.465548	-18.620120	-179.339400	-1.914518	-34.508200	-1.211966	-2.644351	 86.052010	 1.434424	 2.396722	 25.107320	-0.069535	-6.200549	 4.700553	-1.511067	-7.656577	 4.824610	-1.747272	-9.441899	 2.553488	-0.415461	-99.454000	 88.445050	-169.934500	 54.216930	 69.758700	-63.612140	-7.960010	-3.638304	-17.537120	 8.205341	 3.435468	-5.308547	-3.765417	-12.868980	 3.034394	-5.213516	-0.193813	 3.566525	-1.378229	 35.397820	-2.634230	 1.109857	 2.190378	 0.950763	-1.849820	 4.572446	 0.249630	 97.552860	 88.236310	 169.521200	-52.703360	 75.705520	 64.641650	-1.927530	-11.859920	 22.965740	-27.263130	 2.459741	 9.548547	-6.967712	-3.625519	-36.363650	 5.070815	-0.697434	-9.399699	-2.350882	 35.473990	 5.254307
-5.706737	-25.167410	 0.985799	-28.233650	 8.893950	 2.458909	 5.133952	-17.893060	 175.418700	-4.747136	-34.045970	-1.430539	-1.680375	 82.827720	-0.825540	-2.326750	 37.222890	-0.203540	-2.496486	-18.570150	-179.297500	-1.838373	-34.666430	-1.181381	-2.715028	 86.055930	 1.555218	 2.396103	 25.314110	-0.065231	-6.720215	 4.756581	-1.442499	-7.731520	 4.819552	-1.636571	-9.426476	 2.572533	-0.413211	-98.976490	 88.384800	-170.458100	 55.912360	 68.877230	-65.334850	-7.525520	-3.535621	-18.109960	 8.124639	 3.448538	-5.312057	-3.537029	-12.212040	 3.561065	-5.213516	-0.193813	 3.566525	-1.378229	 35.397820	-2.634230	 1.100431	 2.180349	 1.006126	-1.796331	 4.646036	 0.268212	 98.036160	 88.285030	 168.964100	-52.066470	 75.599120	 64.132000	-1.661124	-11.669420	 22.992230	-27.398860	 2.462733	 9.546968	-6.997923	-3.682910	-36.398740	 5.070815	-0.697434	-9.399699	-2.350882	 35.473990	 5.254307
-5.708085	-25.167710	 0.986483	-28.135290	 8.924059	 2.374880	 5.118419	-17.749090	 175.452500	-4.700878	-33.759020	-1.392339	-1.730674	 82.785580	-0.749727	-2.327327	 37.162160	-0.202004	-2.516919	-18.504750	-179.298200	-1.705986	-34.788300	-1.115997	-2.740175	 86.057220	 1.679479	 2.395264	 25.586420	-0.059552	-7.321437	 4.705850	-1.520469	-7.831095	 4.814355	-1.577337	-9.418209	 2.574829	-0.412658	-98.320880	 88.302920	-171.199200	 57.239230	 68.109680	-66.907830	-7.001338	-3.504699	-18.504330	 8.424894	 3.456614	-5.310852	-3.365710	-11.537470	 3.966967	-5.213516	-0.193813	 3.566525	-1.378229	 35.397820	-2.634230	 1.087834	 2.259842	 0.978332	-1.761112	 4.648004	 0.538165	 98.884510	 88.392580	 168.055000	-51.119810	 75.507870	 63.285010	-1.263452	-11.464190	 23.104870	-27.472610	 2.466193	 9.546116	-7.029813	-3.717167	-36.455670	 5.070815	-0.697434	-9.399699	-2.350882	 35.473990	 5.254307
-5.709388	-25.168100	 0.987085	-27.900870	 8.941881	 2.285242	 5.106057	-17.666020	 175.460700	-4.558550	-33.573200	-1.307379	-1.723084	 82.759410	-0.647683	-2.327928	 37.095670	-0.200348	-2.544345	-18.420890	-179.299500	-1.557715	-34.784090	-1.045638	-2.767971	 86.049230	 1.811275	 2.394712	 25.757580	-0.055973	-8.067567	 4.594559	-1.580906	-8.002424	 4.846489	-1.555261	-9.453720	 2.614360	-0.410956	-97.847560	 88.271610	-171.789200	 58.066980	 67.650500	-68.119190	-7.078404	-3.398221	-18.904240	 8.600302	 3.466360	-5.311674	-3.246285	-11.063840	 4.255516	-5.213516	-0.193813	 3.566525	-1.378229	 35.397820	-2.634230	 1.003016	 2.292968	 1.044419	-1.718404	 4.732706	 0.567640	 99.772430	 88.487550	 167.104700	-49.824460	 75.423910	 62.065790	-0.694750	-11.222480	 23.315730	-27.486180	 2.470391	 9.544977	-7.058586	-3.706258	-36.538680	 5.070815	-0.697434	-9.399699	-2.350882	 35.473990	 5.254307
